<svg xmlns="http://www.w3.org/2000/svg" width="1115" height="940" viewBox="0 0 1115 940" fill="none"><path fill-rule="evenodd" clip-rule="evenodd" d="M2.47801 556.241C2.47801 250.033 250.926 1.80222 557.404 1.80222C863.881 1.80222 1112.33 250.033 1112.33 556.241C1112.33 862.448 863.881 1110.68 557.404 1110.68C250.926 1110.68 2.47801 862.448 2.47801 556.241ZM557.404 0C249.932 0 0.675781 249.037 0.675781 556.241C0.675781 863.445 249.932 1112.48 557.404 1112.48C864.875 1112.48 1114.13 863.445 1114.13 556.241C1114.13 249.037 864.875 0 557.404 0ZM23.959 556.24C23.959 261.885 262.79 23.2622 557.405 23.2622C852.02 23.2622 1090.85 261.885 1090.85 556.24C1090.85 850.594 852.02 1089.22 557.405 1089.22C262.79 1089.22 23.959 850.594 23.959 556.24ZM557.405 21.46C261.796 21.46 22.1567 260.888 22.1567 556.24C22.1567 851.591 261.796 1091.02 557.405 1091.02C853.014 1091.02 1092.65 851.591 1092.65 556.24C1092.65 260.888 853.014 21.46 557.405 21.46ZM557.404 44.7299C274.656 44.7299 45.4444 273.742 45.4444 556.241C45.4444 838.739 274.656 1067.75 557.404 1067.75C840.153 1067.75 1069.36 838.739 1069.36 556.241C1069.36 273.742 840.153 44.7299 557.404 44.7299ZM43.6422 556.241C43.6422 272.745 273.662 42.9277 557.404 42.9277C841.147 42.9277 1071.17 272.745 1071.17 556.241C1071.17 839.736 841.147 1069.55 557.404 1069.55C273.662 1069.55 43.6422 839.736 43.6422 556.241ZM66.9239 556.24C66.9239 285.593 286.519 66.1899 557.404 66.1899C828.29 66.1899 1047.88 285.593 1047.88 556.24C1047.88 826.886 828.29 1046.29 557.404 1046.29C286.519 1046.29 66.9239 826.886 66.9239 556.24ZM557.404 64.3877C285.525 64.3877 65.1216 284.597 65.1216 556.24C65.1216 827.883 285.525 1048.09 557.404 1048.09C829.284 1048.09 1049.69 827.883 1049.69 556.24C1049.69 284.597 829.284 64.3877 557.404 64.3877ZM557.406 87.6518C298.383 87.6518 88.4048 297.447 88.4048 556.241C88.4048 815.035 298.383 1024.83 557.406 1024.83C816.428 1024.83 1026.41 815.035 1026.41 556.241C1026.41 297.447 816.428 87.6518 557.406 87.6518ZM86.6026 556.241C86.6026 296.45 297.389 85.8496 557.406 85.8496C817.422 85.8496 1028.21 296.45 1028.21 556.241C1028.21 816.031 817.422 1026.63 557.406 1026.63C297.389 1026.63 86.6026 816.031 86.6026 556.241ZM109.883 556.24C109.883 309.299 310.244 109.112 557.404 109.112C804.564 109.112 1004.93 309.299 1004.93 556.24C1004.93 803.181 804.564 1003.37 557.404 1003.37C310.244 1003.37 109.883 803.181 109.883 556.24ZM557.404 107.31C309.25 107.31 108.081 308.302 108.081 556.24C108.081 804.178 309.25 1005.17 557.404 1005.17C805.558 1005.17 1006.73 804.178 1006.73 556.24C1006.73 308.302 805.558 107.31 557.404 107.31ZM557.404 130.58C322.11 130.58 131.368 321.155 131.368 556.241C131.368 791.326 322.11 981.902 557.404 981.902C792.697 981.902 983.439 791.326 983.439 556.241C983.439 321.155 792.697 130.58 557.404 130.58ZM129.566 556.241C129.566 320.159 321.116 128.777 557.404 128.777C793.691 128.777 985.241 320.159 985.241 556.241C985.241 792.323 793.691 983.704 557.404 983.704C321.116 983.704 129.566 792.323 129.566 556.241ZM152.849 556.241C152.849 333.008 333.974 152.04 557.405 152.04C780.836 152.04 961.961 333.008 961.961 556.241C961.961 779.474 780.836 960.442 557.405 960.442C333.974 960.442 152.849 779.474 152.849 556.241ZM557.405 150.238C332.98 150.238 151.047 332.011 151.047 556.241C151.047 780.471 332.98 962.244 557.405 962.244C781.83 962.244 963.763 780.471 963.763 556.241C963.763 332.011 781.83 150.238 557.405 150.238ZM557.405 173.5C345.837 173.5 174.329 344.86 174.329 556.24C174.329 767.621 345.837 938.98 557.405 938.98C768.973 938.98 940.481 767.621 940.481 556.24C940.481 344.86 768.973 173.5 557.405 173.5ZM172.526 556.24C172.526 343.863 344.843 171.698 557.405 171.698C769.967 171.698 942.283 343.863 942.283 556.24C942.283 768.618 769.967 940.782 557.405 940.782C344.843 940.782 172.526 768.618 172.526 556.24ZM195.807 556.24C195.807 356.712 357.698 194.961 557.403 194.961C757.108 194.961 919 356.712 919 556.24C919 755.768 757.108 917.519 557.403 917.519C357.698 917.519 195.807 755.768 195.807 556.24ZM557.403 193.159C356.704 193.159 194.004 355.715 194.004 556.24C194.004 756.765 356.704 919.321 557.403 919.321C758.102 919.321 920.802 756.765 920.802 556.24C920.802 355.715 758.102 193.159 557.403 193.159ZM557.404 216.428C369.566 216.428 217.294 368.568 217.294 556.24C217.294 743.912 369.566 896.052 557.404 896.052C745.243 896.052 897.515 743.912 897.515 556.24C897.515 368.568 745.243 216.428 557.404 216.428ZM215.491 556.24C215.491 367.571 368.572 214.626 557.404 214.626C746.237 214.626 899.318 367.571 899.318 556.24C899.318 744.909 746.237 897.854 557.404 897.854C368.572 897.854 215.491 744.909 215.491 556.24ZM238.771 556.24C238.771 380.421 381.427 237.889 557.403 237.889C733.379 237.889 876.034 380.421 876.034 556.24C876.034 732.06 733.379 874.592 557.403 874.592C381.427 874.592 238.771 732.06 238.771 556.24ZM557.403 236.087C380.433 236.087 236.969 379.424 236.969 556.24C236.969 733.057 380.433 876.394 557.403 876.394C734.372 876.394 877.836 733.057 877.836 556.24C877.836 379.424 734.372 236.087 557.403 236.087ZM557.406 259.35C393.292 259.35 260.254 392.273 260.254 556.24C260.254 720.208 393.292 853.131 557.406 853.131C721.519 853.131 854.557 720.208 854.557 556.24C854.557 392.273 721.519 259.35 557.406 259.35ZM258.452 556.24C258.452 391.276 392.299 257.548 557.406 257.548C722.512 257.548 856.359 391.276 856.359 556.24C856.359 721.205 722.512 854.933 557.406 854.933C392.299 854.933 258.452 721.205 258.452 556.24ZM281.733 556.241C281.733 404.126 405.155 280.811 557.405 280.811C709.656 280.811 833.077 404.126 833.077 556.241C833.077 708.355 709.656 831.67 557.405 831.67C405.155 831.67 281.733 708.355 281.733 556.241ZM557.405 279.009C404.161 279.009 279.931 403.129 279.931 556.241C279.931 709.352 404.161 833.472 557.405 833.472C710.649 833.472 834.88 709.352 834.88 556.241C834.88 403.129 710.649 279.009 557.405 279.009ZM557.405 302.278C417.021 302.278 303.219 415.982 303.219 556.24C303.219 696.499 417.021 810.203 557.405 810.203C697.789 810.203 811.591 696.499 811.591 556.24C811.591 415.982 697.789 302.278 557.405 302.278ZM301.417 556.24C301.417 414.985 416.027 300.476 557.405 300.476C698.783 300.476 813.393 414.985 813.393 556.24C813.393 697.496 698.783 812.005 557.405 812.005C416.027 812.005 301.417 697.496 301.417 556.24ZM324.698 556.241C324.698 427.834 428.884 323.739 557.405 323.739C685.926 323.739 790.112 427.834 790.112 556.241C790.112 684.647 685.926 788.743 557.405 788.743C428.884 788.743 324.698 684.647 324.698 556.241ZM557.405 321.937C427.89 321.937 322.896 426.837 322.896 556.241C322.896 685.644 427.89 790.545 557.405 790.545C686.92 790.545 791.914 685.644 791.914 556.241C791.914 426.837 686.92 321.937 557.405 321.937ZM557.405 345.199C440.747 345.199 346.178 439.686 346.178 556.24C346.178 672.794 440.747 767.281 557.405 767.281C674.063 767.281 768.632 672.794 768.632 556.24C768.632 439.686 674.063 345.199 557.405 345.199ZM344.375 556.24C344.375 438.689 439.753 343.396 557.405 343.396C675.057 343.396 770.434 438.689 770.434 556.24C770.434 673.791 675.057 769.083 557.405 769.083C439.753 769.083 344.375 673.791 344.375 556.24ZM367.659 556.24C367.659 451.538 452.611 366.66 557.406 366.66C662.201 366.66 747.153 451.538 747.153 556.24C747.153 660.942 662.201 745.82 557.406 745.82C452.611 745.82 367.659 660.942 367.659 556.24ZM557.406 364.857C451.617 364.857 365.856 450.542 365.856 556.24C365.856 661.938 451.617 747.622 557.406 747.622C663.195 747.622 748.956 661.938 748.956 556.24C748.956 450.542 663.195 364.857 557.406 364.857ZM557.406 388.126C464.477 388.126 389.144 463.394 389.144 556.24C389.144 649.085 464.477 724.353 557.406 724.353C650.335 724.353 725.667 649.085 725.667 556.24C725.667 463.394 650.335 388.126 557.406 388.126ZM387.342 556.24C387.342 462.397 463.483 386.324 557.406 386.324C651.329 386.324 727.47 462.397 727.47 556.24C727.47 650.082 651.329 726.155 557.406 726.155C463.483 726.155 387.342 650.082 387.342 556.24ZM410.622 556.241C410.622 475.248 476.338 409.588 557.404 409.588C638.47 409.588 704.186 475.248 704.186 556.241C704.186 637.234 638.47 702.894 557.404 702.894C476.338 702.894 410.622 637.234 410.622 556.241ZM557.404 407.786C475.344 407.786 408.82 474.251 408.82 556.241C408.82 638.231 475.344 704.696 557.404 704.696C639.464 704.696 705.988 638.231 705.988 556.241C705.988 474.251 639.464 407.786 557.404 407.786ZM557.404 431.049C488.201 431.049 432.102 487.1 432.102 556.241C432.102 625.382 488.201 681.433 557.404 681.433C626.607 681.433 682.706 625.382 682.706 556.241C682.706 487.1 626.607 431.049 557.404 431.049ZM430.299 556.241C430.299 486.103 487.207 429.247 557.404 429.247C627.601 429.247 684.508 486.103 684.508 556.241C684.508 626.379 627.601 683.235 557.404 683.235C487.207 683.235 430.299 626.379 430.299 556.241ZM453.582 556.24C453.582 498.952 500.065 452.509 557.405 452.509C614.746 452.509 661.228 498.952 661.228 556.24C661.228 613.529 614.746 659.971 557.405 659.971C500.065 659.971 453.582 613.529 453.582 556.24ZM557.405 450.707C499.071 450.707 451.78 497.955 451.78 556.24C451.78 614.525 499.071 661.773 557.405 661.773C615.74 661.773 663.03 614.525 663.03 556.24C663.03 497.955 615.74 450.707 557.405 450.707ZM557.403 473.977C511.929 473.977 475.066 510.809 475.066 556.241C475.066 601.674 511.929 638.505 557.403 638.505C602.878 638.505 639.74 601.674 639.74 556.241C639.74 510.809 602.878 473.977 557.403 473.977ZM473.264 556.241C473.264 509.812 510.935 472.175 557.403 472.175C603.872 472.175 641.543 509.812 641.543 556.241C641.543 602.67 603.872 640.307 557.403 640.307C510.935 640.307 473.264 602.67 473.264 556.241ZM496.549 556.24C496.549 522.66 523.795 495.437 557.406 495.437C591.018 495.437 618.264 522.66 618.264 556.24C618.264 589.82 591.018 617.044 557.406 617.044C523.795 617.044 496.549 589.82 496.549 556.24ZM557.406 493.635C522.801 493.635 494.747 521.663 494.747 556.24C494.747 590.817 522.801 618.846 557.406 618.846C592.011 618.846 620.066 590.817 620.066 556.24C620.066 521.663 592.011 493.635 557.406 493.635Z" fill="url(#paint0_radial_456_21268)"></path><defs><radialGradient id="paint0_radial_456_21268" cx="0" cy="0" r="1" gradientUnits="userSpaceOnUse" gradientTransform="translate(557.404 518.96) rotate(90) scale(433.968 265.556)"><stop stop-color="#FF0F0F"></stop><stop offset="1" stop-color="#FF0F0F" stop-opacity="0.1"></stop></radialGradient></defs></svg>